<svg width="16" height="26" viewBox="0 0 16 26" fill="none" xmlns="http://www.w3.org/2000/svg">
<path d="M15.9836 1.41271C15.7357 0.880551 12.7857 1.11016 10.7969 0.958213C10.7362 0.953486 10.6973 1.03115 10.7249 1.09801L11.2027 2.242L4.24073 7.19415C3.84435 7.47644 3.9364 7.93768 3.93828 8.58802L4.00841 11.471C4.2376 11.9586 4.56071 11.7972 4.95709 11.5155L12.5959 6.03597C12.6492 5.99815 12.6949 5.95628 12.735 5.91036L13.132 6.86054C13.1601 6.9274 13.234 6.93415 13.2666 6.87067C14.179 5.08444 16.2072 1.89354 15.9836 1.41271Z" fill="url(#paint0_linear_457_3447)"/>
<path d="M7.26685 14.8477L7.30818 23.2419C7.30943 23.8052 6.93935 23.9402 6.48161 24.2644L4.42208 25.6393C3.96434 25.6407 3.91487 25.2152 3.91424 24.652L3.90234 14.9449" fill="url(#paint1_linear_457_3447)"/>
<path d="M15.2977 9.03966C15.0497 8.5075 12.0997 8.73711 10.111 8.58517C10.0502 8.58044 10.0114 8.6581 10.0389 8.72496L10.5167 9.86896L0.312994 17.1165C-0.0833828 17.3988 0.00866683 17.8601 0.0105454 18.5104L0.0806784 21.3934C0.309863 21.8809 0.632976 21.7195 1.02935 21.4379L11.91 13.6629C11.9632 13.6251 12.0089 13.5832 12.049 13.5373L12.446 14.4875C12.4742 14.5544 12.5481 14.5611 12.5806 14.4976C13.4936 12.7114 15.5218 9.52049 15.2977 9.03966Z" fill="url(#paint2_linear_457_3447)"/>
<defs>
<linearGradient id="paint0_linear_457_3447" x1="3.92757" y1="6.37104" x2="16.0005" y2="6.37104" gradientUnits="userSpaceOnUse">
<stop stop-color="#00EEFF"/>
<stop offset="1" stop-color="#7C30FF"/>
</linearGradient>
<linearGradient id="paint1_linear_457_3447" x1="5.60548" y1="25.6399" x2="5.60548" y2="14.8476" gradientUnits="userSpaceOnUse">
<stop stop-color="#00EEFF"/>
<stop offset="1" stop-color="#7C30FF"/>
</linearGradient>
<linearGradient id="paint2_linear_457_3447" x1="-0.000118589" y1="15.1455" x2="15.3151" y2="15.1455" gradientUnits="userSpaceOnUse">
<stop stop-color="#00EEFF"/>
<stop offset="1" stop-color="#7C30FF"/>
</linearGradient>
</defs>
</svg>
