<svg width="124" height="87" viewBox="0 0 124 87" fill="none" xmlns="http://www.w3.org/2000/svg">
  <path
    d="M97.4053 28.5444V85.0829L87.2574 77.1095M97.4053 28.5444H1M97.4053 28.5444C89.8669 34.3432 87.499 63.3373 87.2574 77.1095M1 28.5444V85.0829L11.8728 77.1095M1 28.5444C9.11834 33.7634 11.6312 63.0957 11.8728 77.1095M11.8728 77.1095H87.2574"
    stroke="#7C2EFE" stroke-width="2" stroke-linejoin="round" />
  <path
    d="M101.754 24.1953H68.4111L62.6123 16.9467H75.6596V3.89941L85.0827 11.1479L91.6064 1L97.4052 11.1479L107.553 3.89941V16.9467H120.6L113.352 25.645L123.5 32.1686L112.627 38.6923L119.151 48.8402H107.553V59.713L101.754 56.0888V24.1953Z"
    fill="#7C2EFE" stroke="#7C2EFE" stroke-linejoin="round" />
  <path fill-rule="evenodd" clip-rule="evenodd"
    d="M78.1553 44.2931C79.137 43.1894 79.7334 41.7354 79.7334 40.1421L79.7333 40.1159C79.0643 39.9873 78.5589 39.3988 78.5589 38.6923C78.5589 38.2096 78.7948 37.7821 79.1576 37.5186C78.1661 35.3782 75.9988 33.8936 73.4848 33.8936C71.0719 33.8936 68.9783 35.2613 67.9372 37.2638C68.6194 37.3817 69.1383 37.9764 69.1383 38.6923C69.1383 39.493 68.4893 40.142 67.6886 40.142C67.6874 39.796 67.6868 39.6324 67.6865 39.4688C67.6861 39.2898 67.6861 39.1107 67.6861 38.6923C67.6861 38.3592 67.6866 38.0522 67.6871 37.8074C67.3964 38.5287 67.2363 39.3167 67.2363 40.1421C67.2363 43.593 70.0339 46.3906 73.4848 46.3906C75.0436 46.3906 76.4691 45.8198 77.5637 44.8758C77.4383 44.9484 77.2835 45.0378 77.0141 45.1933C76.3207 45.5936 75.7572 45.9157 75.7572 45.9157C75.303 45.129 75.4968 44.1666 76.1902 43.7663C76.8303 43.3967 77.6723 43.6353 78.1553 44.2931ZM73.4848 47.3906C77.4881 47.3906 80.7334 44.1453 80.7334 40.1421C80.7334 36.1388 77.4881 32.8936 73.4848 32.8936C69.4816 32.8936 66.2363 36.1388 66.2363 40.1421C66.2363 44.1453 69.4816 47.3906 73.4848 47.3906ZM76.3844 40.142C76.3844 41.7433 75.0863 43.0414 73.485 43.0414C71.8837 43.0414 70.5856 41.7433 70.5856 40.142C70.5856 38.5407 71.8837 37.2426 73.485 37.2426C75.0863 37.2426 76.3844 38.5407 76.3844 40.142ZM73.485 35.7954C74.2856 35.7954 74.9347 35.1463 74.9347 34.3457L74.7635 34.3451L74.7634 34.3451C74.5293 34.3443 74.3954 34.3438 74.2615 34.3436C74.0825 34.3432 73.9035 34.3432 73.4854 34.3432H73.485C72.6843 34.3432 72.0353 34.3457 72.0353 34.3457C72.0353 35.1463 72.6843 35.7954 73.485 35.7954ZM69.0394 44.466C69.4937 43.6792 70.424 43.366 71.1174 43.7663C71.8108 44.1666 72.0046 45.129 71.5504 45.9157C71.5504 45.9157 70.9869 45.5936 70.2935 45.1933L70.2928 45.1929L70.2919 45.1924C69.9307 44.9839 69.7758 44.8945 69.6212 44.8047C69.5061 44.7379 69.3911 44.6709 69.1912 44.5545L69.1882 44.5527L69.0394 44.466Z"
    fill="#7C2EFE" />
</svg>
