<svg width="93" height="82" viewBox="0 0 93 82" fill="none" xmlns="http://www.w3.org/2000/svg">
  <path fill-rule="evenodd" clip-rule="evenodd"
    d="M24.9851 1.89068C18.364 3.70397 0 11.7836 0 12.8837C0 13.2417 2.01407 17.6021 4.47649 22.5735C7.46915 28.6173 9.58178 31.3704 10.8519 30.8853C11.8957 30.4872 14.2401 29.7879 16.0612 29.3332L19.3718 28.5053L19.7493 55.2527L20.1269 82H46.5H72.8731L73.2507 55.2527L73.6282 28.5053L76.9388 29.3332C78.7599 29.7879 81.1043 30.4872 82.1482 30.8853C83.4182 31.3704 85.5309 28.6173 88.5235 22.5735C90.9859 17.6021 93 13.2417 93 12.8837C93 11.7532 74.5485 3.69567 67.6374 1.80914L61.0136 0L59.012 4.77093C54.6451 15.178 39.593 15.623 34.4766 5.49652C33.2066 2.98529 31.9573 0.761524 31.7005 0.554213C31.4423 0.348283 28.4205 0.949487 24.9851 1.89068ZM39.2099 4.25818C40.1899 7.19371 46.6902 8.73196 50.6087 6.95323C56.3941 4.32866 54.6771 2.53058 46.3848 2.53058C40.802 2.53058 38.7949 3.01431 39.2099 4.25818Z"
    fill="#7C2EFE" />
</svg>
