<svg width="86" height="83" viewBox="0 0 86 83" fill="none" xmlns="http://www.w3.org/2000/svg">
  <path
    d="M41.5858 70.8777C42.343 71.6348 43.5621 71.6613 44.3514 70.9378C53.2799 62.7539 64.4238 51.61 72.5683 43.4654L72.5866 43.4472C73.1586 42.8752 73.3297 42.0149 73.0202 41.2676C72.7106 40.5202 71.9813 40.0329 71.1724 40.0329C69.3191 40.0329 67.0951 40.0327 64.9636 40.0324L64.7095 40.0323C63.5137 40.0322 62.353 40.032 61.3103 40.0319V39.9522V39.8541V39.7561V39.6581V39.5603V39.4625V39.3648V39.2672V39.1697V39.0722V38.9748V38.8776V38.7804V38.6832V38.5862V38.4892V38.3924V38.2956V38.1989V38.1022V38.0057V37.9092V37.8128V37.7165V37.6203V37.5241V37.4281V37.3321V37.2362V37.1404V37.0446V36.949V36.8534V36.7579V36.6625V36.5671V36.4719V36.3767V36.2816V36.1866V36.0916V35.9968V35.902V35.8073V35.7126V35.6181V35.5236V35.4292V35.3349V35.2407V35.1465V35.0525V34.9585V34.8646V34.7707V34.677V34.5833V34.4897V34.3961V34.3027V34.2093V34.116V34.0228V33.9297V33.8366V33.7436V33.6507V33.5579V33.4651V33.3725V33.2799V33.1873V33.0949V33.0025V32.9102V32.818V32.7259V32.6338V32.5418V32.4499V32.3581V32.2663V32.1746V32.083V31.9915V31.9V31.8086V31.7173V31.6261V31.5349V31.4438V31.3528V31.2619V31.1711V31.0803V30.9896V30.8989V30.8084V30.7179V30.6275V30.5371V30.4469V30.3567V30.2666V30.1765V30.0866V29.9967V29.9068V29.8171V29.7274V29.6378V29.5483V29.4588V29.3695V29.2801V29.1909V29.1018V29.0127V28.9236V28.8347V28.7458V28.657V28.5683V28.4796V28.3911V28.3025V28.2141V28.1257V28.0374V27.9492V27.8611V27.773V27.685V27.597V27.5091V27.4213V27.3336V27.246V27.1584V27.0709V26.9834V26.896V26.8087V26.7215V26.6343V26.5472V26.4602V26.3733V26.2864V26.1996V26.1128V26.0262V25.9395V25.853V25.7665V25.6801V25.5938V25.5076V25.4214V25.3352V25.2492V25.1632V25.0773V24.9915V24.9057V24.82V24.7343V24.6487V24.5632V24.4778V24.3924V24.3071V24.2219V24.1367V24.0516V23.9666V23.8816V23.7967V23.7119V23.6271V23.5424V23.4578V23.3733V23.2888V23.2043V23.12V23.0357V22.9514V22.8673V22.7832V22.6992V22.6152V22.5313V22.4475V22.3637V22.28V22.1964V22.1128V22.0293V21.9458V21.8625V21.7792V21.6959V21.6127V21.5296V21.4466V21.3636V21.2807V21.1978V21.115V21.0323V20.9496V20.867V20.7845V20.702V20.6196V20.5373V20.455V20.3728V20.2906V20.2085V20.1265V20.0445V19.9626V19.8808V19.799V19.7173V19.6357V19.5541V19.4726V19.3911V19.3097V19.2284V19.1471V19.0659V18.9847V18.9036V18.8226V18.7416V18.6607V18.5799V18.4991V18.4184V18.3378V18.2572V18.1766V18.0962V18.0157V17.9354V17.8551V17.7749V17.6947V17.6146V17.5346V17.4546V17.3746V17.2948V17.215V17.1352V17.0555V16.9759V16.8963V16.8168V16.7374V16.658V16.5787V16.4994V16.4202V16.341V16.262V16.1829V16.1039V16.025V15.9462V15.8674V15.7886V15.71V15.6313V15.5528V15.4743V15.3958V15.3174V15.2391V15.1608V15.0826V15.0044V14.9263V14.8483V14.7703V14.6924V14.6145V14.5367V14.4589V14.3812V14.3036V14.226V14.1485V14.071V13.9936V13.9162V13.8389V13.7617V13.6845V13.6073V13.5302V13.4532V13.3762V13.2993V13.2225V13.1457V13.0689V12.9922V12.9156V12.839V12.7625V12.686V12.6096V12.5332V12.4569V12.3807V12.3045V12.2283V12.1522V12.0762V12.0002V11.9243V11.8484V11.7726V11.6968V11.6211V11.5455V11.4699V11.3943V11.3188V11.2434V11.168V11.0926V11.0173V10.9421V10.8669V10.7918V10.7167V10.6417V10.5667V10.4918V10.4169V10.3421V10.2674V10.1927V10.118V10.0434V9.96884V9.89434V9.81989V9.74549V9.67114V9.59684V9.5226V9.4484V9.37426V9.30017V9.22612V9.15213V9.07819V9.0043V8.93046V8.85667V8.78293V8.70924V8.63561V8.56202V8.48848V8.41499V8.34155V8.26816V8.19482V8.12153V8.04829V7.9751V7.90196V7.82886V7.75582V7.68283V7.60988V7.53698V7.46413V7.39133V7.31858V7.24588V7.17322V7.10061V7.02806V6.95555V6.88308V6.81067V6.7383V6.66598V6.59371V6.52149V6.44931V6.37718V6.3051V6.23306V6.16107V6.08913V6.01724V5.94539V5.87359V5.80184V5.73013V5.65847V5.58686V5.51529V5.44377V5.37229V5.30086V5.22948V5.15814V5.08684V5.0156V4.9444V4.87324V4.80213V4.73107V4.66005V4.58907V4.51814V4.44726V4.37642V4.30562V4.23487V4.16416V4.0935V4.02289V3.95231V3.88178V3.8113V3.74086V3.67046V3.60011V3.5298V3.45954V3.38931V3.31914V3.249V3.17891V3.10886V3.10401C74.7655 9.83124 84 23.7387 84 39.7988C84 62.4425 65.6437 80.7988 43 80.7988C20.3563 80.7988 2 62.4425 2 39.7988C2 23.7387 11.2345 9.83124 24.6897 3.10401V3.15058V3.21469V3.27888V3.34317V3.40755V3.47202V3.53657V3.60122V3.66595V3.73078V3.79569V3.86069V3.92578V3.99097V4.05624V4.1216V4.18705V4.25259V4.31822V4.38393V4.44974V4.51564V4.58163V4.6477V4.71387V4.78012V4.84646V4.9129V4.97942V5.04603V5.11273V5.17952V5.2464V5.31337V5.38042V5.44757V5.5148V5.58213V5.64954V5.71705V5.78464V5.85232V5.92009V5.98795V6.0559V6.12394V6.19206V6.26028V6.32858V6.39698V6.46546V6.53403V6.60269V6.67144V6.74028V6.80921V6.87823V6.94733V7.01653V7.08581V7.15519V7.22465V7.2942V7.36384V7.43357V7.50338V7.57329V7.64329V7.71337V7.78354V7.8538V7.92415V7.99459V8.06512V8.13574V8.20644V8.27724V8.34812V8.4191V8.49016V8.56131V8.63254V8.70387V8.77529V8.84679V8.91838V8.99006V9.06184V9.13369V9.20564V9.27768V9.3498V9.42202V9.49432V9.56671V9.63919V9.71176V9.78441V9.85716V9.92999V10.0029V10.0759V10.149V10.2222V10.2955V10.3689V10.4423V10.5158V10.5895V10.6632V10.737V10.8109V10.8849V10.959V11.0331V11.1074V11.1817V11.2561V11.3306V11.4052V11.4799V11.5547V11.6296V11.7045V11.7796V11.8547V11.9299V12.0052V12.0806V12.1561V12.2317V12.3074V12.3831V12.4589V12.5349V12.6109V12.687V12.7632V12.8395V12.9158V12.9923V13.0688V13.1455V13.2222V13.299V13.3759V13.4529V13.5299V13.6071V13.6843V13.7617V13.8391V13.9166V13.9942V14.0719V14.1497V14.2275V14.3055V14.3835V14.4617V14.5399V14.6182V14.6966V14.7751V14.8536V14.9323V15.011V15.0898V15.1688V15.2478V15.3269V15.406V15.4853V15.5647V15.6441V15.7237V15.8033V15.883V15.9628V16.0427V16.1226V16.2027V16.2828V16.3631V16.4434V16.5238V16.6043V16.6849V16.7656V16.8463V16.9272V17.0081V17.0891V17.1703V17.2515V17.3327V17.4141V17.4956V17.5771V17.6588V17.7405V17.8223V17.9042V17.9862V18.0683V18.1504V18.2327V18.315V18.3974V18.4799V18.5625V18.6452V18.728V18.8109V18.8938V18.9769V19.06V19.1432V19.2265V19.3099V19.3933V19.4769V19.5606V19.6443V19.7281V19.812V19.896V19.9801V20.0643V20.1485V20.2329V20.3173V20.4018V20.4864V20.5711V20.6559V20.7408V20.8257V20.9108V20.9959V21.0811V21.1664V21.2518V21.3373V21.4229V21.5085V21.5943V21.6801V21.766V21.852V21.9381V22.0243V22.1105V22.1969V22.2833V22.3698V22.4564V22.5431V22.6299V22.7168V22.8038V22.8908V22.9779V23.0651V23.1525V23.2398V23.3273V23.4149V23.5025V23.5903V23.6781V23.766V23.854V23.9421V24.0303V24.1185V24.2069V24.2953V24.3838V24.4725V24.5611V24.6499V24.7388V24.8277V24.9168V25.0059V25.0951V25.1844V25.2738V25.3633V25.4529V25.5425V25.6322V25.7221V25.812V25.902V25.992V26.0822V26.1725V26.2628V26.3532V26.4437V26.5343V26.625V26.7158V26.8066V26.8976V26.9886V27.0797V27.1709V27.2622V27.3536V27.4451V27.5366V27.6283V27.72V27.8118V27.9037V27.9957V28.0877V28.1799V28.2721V28.3645V28.4569V28.5494V28.642V28.7346V28.8274V28.9202V29.0132V29.1062V29.1993V29.2925V29.3857V29.4791V29.5726V29.6661V29.7597V29.8534V29.9472V30.0411V30.1351V30.2291V30.3232V30.4175V30.5118V30.6062V30.7007V30.7952V30.8899V30.9846V31.0794V31.1743V31.2693V31.3644V31.4596V31.5548V31.6502V31.7456V31.8411V31.9367V32.0324V32.1282V32.224V32.32V32.416V32.5121V32.6083V32.7046V32.801V32.8974V32.994V33.0906V33.1873V33.2841V33.381V33.478V33.575V33.6722V33.7694V33.8667V33.9641V34.0616V34.1592V34.2568V34.3546V34.4524V34.5503V34.6483V34.7464V34.8446V34.9428V35.0412V35.1396V35.2381V35.3367V35.4354V35.5342V35.633V35.732V35.831V35.9301V36.0293V36.1286V36.228V36.3274V36.427V36.5266V36.6263V36.7261V36.826V36.9259V37.026V37.1261V37.2264V37.3267V37.4271V37.5275V37.6281V37.7288V37.8295V37.9303V38.0312V38.1322V38.2333V38.3344V38.4357V38.537V38.6384V38.7399V38.8415V38.9432V39.045V39.1468V39.2487V39.3507V39.4528V39.555V39.6573V39.7596V39.8621V39.9646V40.0329H24.6761H24.655H24.6338H24.6126H24.5913H24.57H24.5486H24.5271H24.5057H24.4841H24.4625H24.4409H24.4192H24.3974H24.3756H24.3538H24.3319H24.3099H24.288H24.2659H24.2438H24.2217H24.1995H24.1772H24.155H24.1326H24.1102H24.0878H24.0653H24.0428H24.0202H23.9976H23.975H23.9522H23.9295H23.9067H23.8838H23.861H23.838H23.8151H23.792H23.769H23.7459H23.7227H23.6995H23.6763H23.653H23.6297H23.6063H23.5829H23.5595H23.536H23.5125H23.4889H23.4653H23.4417H23.418H23.3943H23.3705H23.3467H23.3229H23.299H23.2751H23.2511H23.2271H23.2031H23.179H23.1549H23.1308H23.1066H23.0824H23.0582H23.0339H23.0096H22.9852H22.9608H22.9364H22.912H22.8875H22.863H22.8384H22.8138H22.7892H22.7646H22.7399H22.7152H22.6904H22.6656H22.6408H22.616H22.5911H22.5662H22.5413H22.5163H22.4914H22.4663H22.4413H22.4162H22.3911H22.366H22.3408H22.3156H22.2904H22.2652H22.2399H22.2146H22.1893H22.1639H22.1386H22.1132H22.0877H22.0623H22.0368H22.0113H21.9858H21.9603H21.9347H21.9091H21.8835H21.8579H21.8322H21.8065H21.7808H21.7551H21.7293H21.7036H21.6778H21.652H21.6261H21.6003H21.5744H21.5485H21.5226H21.4967H21.4707H21.4448H21.4188H21.3928H21.3667H21.3407H21.3147H21.2886H21.2625H21.2364H21.2103H21.1841H21.158H21.1318H21.1056H21.0794H21.0532H21.027H21.0007H20.9745H20.9482H20.9219H20.8956H20.8693H20.843H20.8167H20.7903H20.764H20.7376H20.7112H20.6848H20.6584H20.632H20.6056H20.5792H20.5527H20.5263H20.4998H20.4734H20.4469H20.4204H20.3939H20.3674H20.3409H20.3144H20.2879H20.2613H20.2348H20.2083H20.1817H20.1552H20.1286H20.1021H20.0755H20.0489H20.0223H19.9958H19.9692H19.9426H19.916H19.8894H19.8628H19.8362H19.8096H19.783H19.7564H19.7298H19.7032H19.6766H19.65H19.6234H19.5968H19.5702H19.5436H19.517H19.4904H19.4638H19.4371H19.4105H19.384H19.3574H19.3308H19.3042H19.2776H19.251H19.2244H19.1979H19.1713H19.1447H19.1182H19.0916H19.065H19.0385H19.012H18.9854H18.9589H18.9324H18.9059H18.8794H18.8529H18.8264H18.7999H18.7734H18.7469H18.7205H18.694H18.6676H18.6412H18.6147H18.5883H18.5619H18.5355H18.5092H18.4828H18.4564H18.4301H18.4038H18.3774H18.3511H18.3248H18.2986H18.2723H18.246H18.2198H18.1936H18.1673H18.1411H18.115H18.0888H18.0626H18.0365H18.0104H17.9843H17.9582H17.9321H17.9061H17.88H17.854H17.828H17.802H17.776H17.7501H17.7242H17.6983H17.6724H17.6465H17.6206H17.5948H17.569H17.5432H17.5174H17.4917H17.466H17.4403H17.4146H17.3889H17.3633H17.3377H17.3121H17.2865H17.261H17.2354H17.2099H17.1845H17.159H17.1336H17.1082H17.0828H17.0575H17.0322H17.0069H16.9816H16.9564H16.9311H16.906H16.8808H16.8557H16.8306H16.8055H16.7804H16.7554H16.7304H16.7055H16.6805H16.6556H16.6308H16.6059H16.5811H16.5563H16.5316H16.5069H16.4822H16.4576H16.4329H16.4084H16.3838H16.3593H16.3348H16.3103H16.2859H16.2615H16.2372H16.2129H16.1886H16.1644H16.1401H16.116H16.0918H16.0677H16.0437H16.0196H15.9957H15.9717H15.9478H15.9239H15.9001H15.8763H15.8525H15.8288H15.8051H15.7815H15.7579H15.7343H15.7108H15.6873H15.6638H15.6404H15.6171H15.5938H15.5705H15.5472H15.5241H15.5009H15.4778H15.4547H15.4317H15.4087H15.3858H15.3629H15.3401H15.3173H15.2945H15.2718H15.2492H15.2265H15.204H15.1814H15.159H15.1365H15.1142H15.0918H15.0695H15.0473H15.0251H15.003H14.9809H14.9588H14.9368H14.9149H14.893H14.8711H14.8493H14.8276C14.0041 40.0329 13.2648 40.5377 12.9649 41.3047C12.665 42.0716 12.8659 42.944 13.471 43.5025C23.0703 52.3634 33.4162 62.7086 41.5753 70.8671L41.5858 70.8777Z"
    stroke="#7C2EFE" stroke-width="4" stroke-linejoin="round" />
  <path
    d="M37.8107 29.4284C37.8107 29.6756 37.8107 30.4664 37.8107 31.6526C39.7457 31.6526 41.4937 31.7149 43.0004 31.6769M47.4486 16.0836C47.4486 16.0836 47.4486 14.3043 47.4486 13.1181C45.8365 13.118 44.3339 13.0632 43.0004 13.0875M43.0004 10.152V13.0875M43.0004 13.0875C39.428 13.1528 37.0693 13.7868 37.0693 17.5664C37.0693 23.4974 48.9314 22.0147 48.9314 27.2043C48.9314 30.889 46.689 31.5838 43.0004 31.6769M43.0004 31.6769V34.6175"
    stroke="#7C2EFE" stroke-width="4" stroke-linecap="round" stroke-linejoin="round" />
</svg>
